<svg xmlns="http://www.w3.org/2000/svg" viewBox="0 0 64 64">
  <mask id="cut"><rect width="64" height="64" fill="#fff"/><rect x="20" y="30.1" width="6" height="1.8" rx="0.9"/><rect x="38" y="30.1" width="6" height="1.8" rx="0.9"/><ellipse cx="32" cy="46" rx="4" ry="1.7"/></mask>
  <g fill="#000" mask="url(#cut)"><path d="M7.5 25 C4.5 11.5 9.5 1.5 14 3 C19 4.7 27 13 30.5 18.5 C24 23 15 25 7.5 25 Z"/><path d="M56.5 25 C59.5 11.5 54.5 1.5 50 3 C45 4.7 37 13 33.5 18.5 C40 23 49 25 56.5 25 Z"/><circle cx="32" cy="36" r="25"/></g>
  <g fill="none" stroke="#000" stroke-width="3" stroke-linecap="round"><path d="M3 44.5H14"/><path d="M50 44.5H61"/><path d="M3 55 14 51.8"/><path d="M61 55 50 51.8"/></g>
</svg>
