<!-- Generated by scripts/generate_face_art.py. Do not edit. -->
<svg xmlns="http://www.w3.org/2000/svg" viewBox="0 0 256 256" width="256" height="256" role="img" aria-hidden="true"><polygon points="42,96 55,28 105,78" fill="#305992"/><polygon points="151,78 201,28 214,96" fill="#305992"/><polygon points="58,78 63,48 88,75" fill="#d2e9ff"/><polygon points="168,75 193,48 198,78" fill="#d2e9ff"/><ellipse cx="128" cy="141" rx="94" ry="86" fill="#c4b5fd"/><ellipse cx="100" cy="157" rx="39" ry="34" fill="#d2e9ff"/><ellipse cx="156" cy="157" rx="39" ry="34" fill="#d2e9ff"/><ellipse cx="60" cy="141.5" rx="16" ry="9.5" fill="#f88c92" fill-opacity="0.400"/><ellipse cx="196" cy="141.5" rx="16" ry="9.5" fill="#f88c92" fill-opacity="0.400"/><ellipse cx="91" cy="105.5" rx="11" ry="13.5" fill="#0b3b32"/><ellipse cx="165" cy="105.5" rx="11" ry="13.5" fill="#0b3b32"/><ellipse cx="94.08" cy="99.83" rx="3.52" ry="4.05" fill="#eafff6"/><ellipse cx="85.39" cy="109.955" rx="1.87" ry="2.295" fill="#eafff6" fill-opacity="0.850"/><ellipse cx="168.08" cy="99.83" rx="3.52" ry="4.05" fill="#eafff6"/><ellipse cx="159.39" cy="109.955" rx="1.87" ry="2.295" fill="#eafff6" fill-opacity="0.850"/><path d="M113 137 C118 132 138 132 143 137 C141 148 133 153 128 153 C123 153 115 148 113 137 Z" fill="#305992"/><ellipse cx="122.5" cy="140.25" rx="3.5" ry="2.25" fill="#eafff6" fill-opacity="0.400"/><path d="M140.608 162.851 A16 16 0 0 1 115.392 162.851" fill="none" stroke="#06251f" stroke-width="5.5" stroke-linecap="round"/><polyline points="91,149 64,146.6 39,143" fill="none" stroke="#305992" stroke-opacity="0.650" stroke-width="2.6" stroke-linecap="round" stroke-linejoin="round"/><polyline points="165,149 192,146.6 217,143" fill="none" stroke="#305992" stroke-opacity="0.650" stroke-width="2.6" stroke-linecap="round" stroke-linejoin="round"/><polyline points="91,159 64,159 39,159" fill="none" stroke="#305992" stroke-opacity="0.650" stroke-width="2.6" stroke-linecap="round" stroke-linejoin="round"/><polyline points="165,159 192,159 217,159" fill="none" stroke="#305992" stroke-opacity="0.650" stroke-width="2.6" stroke-linecap="round" stroke-linejoin="round"/><polyline points="91,169 64,171.4 39,175" fill="none" stroke="#305992" stroke-opacity="0.650" stroke-width="2.6" stroke-linecap="round" stroke-linejoin="round"/><polyline points="165,169 192,171.4 217,175" fill="none" stroke="#305992" stroke-opacity="0.650" stroke-width="2.6" stroke-linecap="round" stroke-linejoin="round"/></svg>
