<!-- Generated by scripts/generate_face_art.py. Do not edit. -->
<svg xmlns="http://www.w3.org/2000/svg" viewBox="0 0 256 256" width="256" height="256" role="img" aria-hidden="true"><polygon points="50,92 66,36 112,76" fill="#cf724d"/><polygon points="144,76 190,36 206,92" fill="#cf724d"/><polygon points="64,76 70,52 94,72" fill="#ffefd6"/><polygon points="162,72 186,52 192,76" fill="#ffefd6"/><polygon points="61.5,51.5 66,36 79.5,47.5" fill="#33281f"/><polygon points="176.5,47.5 190,36 194.5,51.5" fill="#33281f"/><ellipse cx="128" cy="144" rx="98" ry="92" fill="#ffb899"/><polygon points="70,148 34,158 68,172" fill="#ffefd6"/><polygon points="72,172 40,184 74,192" fill="#ffefd6"/><polygon points="186,148 222,158 188,172" fill="#ffefd6"/><polygon points="184,172 216,184 182,192" fill="#ffefd6"/><ellipse cx="100" cy="169" rx="36" ry="29" fill="#ffefd6"/><ellipse cx="156" cy="169" rx="36" ry="29" fill="#ffefd6"/><ellipse cx="116" cy="91" rx="54" ry="29" fill="#fffdf8" fill-opacity="0.170"/><path d="M52 192 C78 232 178 232 204 192 C182 216 74 216 52 192 Z" fill="#cf724d" fill-opacity="0.100"/><ellipse cx="63" cy="158" rx="21" ry="12" fill="#f9b3b6" fill-opacity="0.400"/><ellipse cx="193" cy="158" rx="21" ry="12" fill="#f9b3b6" fill-opacity="0.400"/><ellipse cx="85" cy="119" rx="9" ry="11" fill="#2a211c"/><ellipse cx="171" cy="119" rx="9" ry="11" fill="#2a211c"/><ellipse cx="87.16" cy="115.26" rx="3.24" ry="3.74" fill="#fffdf8"/><ellipse cx="80.14" cy="123.18" rx="1.62" ry="1.98" fill="#fffdf8" fill-opacity="0.850"/><ellipse cx="173.16" cy="115.26" rx="3.24" ry="3.74" fill="#fffdf8"/><ellipse cx="166.14" cy="123.18" rx="1.62" ry="1.98" fill="#fffdf8" fill-opacity="0.850"/><path d="M117 142 C121 138 135 138 139 142 C137 150 131 154 128 154 C125 154 119 150 117 142 Z" fill="#cf724d"/><ellipse cx="124" cy="144" rx="3" ry="2" fill="#fffdf8" fill-opacity="0.400"/><path d="M114.4 163 C116.4 188.01 119 193.5 128 193.5 C137 193.5 139.6 188.01 141.6 163 C134.8 159.5 121.2 159.5 114.4 163 Z" fill="#33281f"/><ellipse cx="128" cy="190.64" rx="8.5" ry="6.5" fill="#f69aa7"/></svg>
