<!-- Generated by scripts/generate_face_art.py. Do not edit. -->
<svg xmlns="http://www.w3.org/2000/svg" viewBox="0 0 256 256" width="256" height="256" role="img" aria-hidden="true"><ellipse cx="79" cy="67" rx="35" ry="35" fill="#bce283"/><ellipse cx="177" cy="67" rx="35" ry="35" fill="#bce283"/><ellipse cx="128" cy="144" rx="98" ry="92" fill="#bce283"/><ellipse cx="128" cy="208" rx="62" ry="24" fill="#f8fcdb"/><ellipse cx="116" cy="91" rx="54" ry="29" fill="#fffdf8" fill-opacity="0.170"/><path d="M52 192 C78 232 178 232 204 192 C182 216 74 216 52 192 Z" fill="#6da23d" fill-opacity="0.100"/><ellipse cx="65" cy="135.5" rx="19" ry="10.5" fill="#fffdf8" fill-opacity="0.500"/><ellipse cx="191" cy="135.5" rx="19" ry="10.5" fill="#fffdf8" fill-opacity="0.500"/><ellipse cx="67" cy="138" rx="21" ry="12" fill="#f9b3b6" fill-opacity="0.550"/><ellipse cx="189" cy="138" rx="21" ry="12" fill="#f9b3b6" fill-opacity="0.550"/><ellipse cx="79" cy="67" rx="24" ry="24" fill="#fffdf8"/><ellipse cx="177" cy="67" rx="24" ry="24" fill="#fffdf8"/><ellipse cx="79" cy="67" rx="11" ry="13" fill="#2a211c"/><ellipse cx="177" cy="67" rx="11" ry="13" fill="#2a211c"/><ellipse cx="81.64" cy="62.58" rx="3.96" ry="4.42" fill="#fffdf8"/><ellipse cx="73.06" cy="71.94" rx="1.98" ry="2.34" fill="#fffdf8" fill-opacity="0.850"/><ellipse cx="179.64" cy="62.58" rx="3.96" ry="4.42" fill="#fffdf8"/><ellipse cx="171.06" cy="71.94" rx="1.98" ry="2.34" fill="#fffdf8" fill-opacity="0.850"/><ellipse cx="119.5" cy="141.5" rx="4.5" ry="3.5" fill="#6da23d" fill-opacity="0.900"/><ellipse cx="136.5" cy="141.5" rx="4.5" ry="3.5" fill="#6da23d" fill-opacity="0.900"/><path d="M82.5 174 C88.5 202.35 108 205.5 128 205.5 C148 205.5 167.5 202.35 173.5 174 C150.75 168 105.25 168 82.5 174 Z" fill="#33281f"/><ellipse cx="128" cy="201.76" rx="20" ry="8.5" fill="#f69aa7"/></svg>
