<!-- Generated by scripts/generate_face_art.py. Do not edit. -->
<svg xmlns="http://www.w3.org/2000/svg" viewBox="0 0 256 256" width="256" height="256" role="img" aria-hidden="true"><ellipse cx="69" cy="71" rx="29" ry="29" fill="#212529"/><ellipse cx="187" cy="71" rx="29" ry="29" fill="#212529"/><ellipse cx="128" cy="141" rx="94" ry="86" fill="#dce0e8"/><ellipse cx="100" cy="157" rx="39" ry="34" fill="#ffffff"/><ellipse cx="156" cy="157" rx="39" ry="34" fill="#ffffff"/><ellipse cx="91.5" cy="108" rx="15.5" ry="18" fill="#212529"/><ellipse cx="165.5" cy="108" rx="15.5" ry="18" fill="#212529"/><ellipse cx="91.5" cy="107.5" rx="9.5" ry="11.5" fill="#0b3b32"/><ellipse cx="165.5" cy="107.5" rx="9.5" ry="11.5" fill="#0b3b32"/><ellipse cx="95" cy="102.5" rx="3" ry="3.5" fill="#eafff6"/><ellipse cx="169" cy="102.5" rx="3" ry="3.5" fill="#eafff6"/><polygon points="116,137 140,137 128,150" fill="#212529"/><rect x="111" y="153" width="34" height="28.8" rx="15" ry="14.4" fill="#06251f"/><ellipse cx="128" cy="173" rx="9" ry="4.5" fill="#f07286"/></svg>
