<!-- Generated by scripts/generate_face_art.py. Do not edit. -->
<svg xmlns="http://www.w3.org/2000/svg" viewBox="0 0 256 256" width="256" height="256" role="img" aria-hidden="true"><polygon points="120,60 136,60 128,22" fill="#fbbf24"/><polygon points="104,68 120,60 112,30" fill="#047857"/><polygon points="136,60 152,68 144,30" fill="#047857"/><ellipse cx="128" cy="141" rx="94" ry="86" fill="#34d399"/><ellipse cx="91.5" cy="107.5" rx="9.5" ry="11.5" fill="#0b3b32"/><ellipse cx="165.5" cy="107.5" rx="9.5" ry="11.5" fill="#0b3b32"/><ellipse cx="95" cy="102.5" rx="3" ry="3.5" fill="#eafff6"/><ellipse cx="169" cy="102.5" rx="3" ry="3.5" fill="#eafff6"/><polygon points="114,150 142,150 128,170" fill="#06251f"/><path d="M106 148 C110 178 120 188 128 188 C136 188 146 178 150 148 Z" fill="#fbbf24"/><path d="M116 168 C122 172 134 172 140 168 C132 184 120 184 116 168 Z" fill="#f0a81e"/></svg>
