<!-- Generated by scripts/generate_face_art.py. Do not edit. -->
<svg xmlns="http://www.w3.org/2000/svg" viewBox="0 0 256 256" width="256" height="256" role="img" aria-hidden="true"><ellipse cx="128" cy="144" rx="98" ry="92" fill="#86cdf0"/><ellipse cx="128" cy="133" rx="84" ry="71" fill="#375171"/><ellipse cx="128" cy="165" rx="64" ry="61" fill="#fffef6"/><ellipse cx="116" cy="91" rx="54" ry="29" fill="#fffdf8" fill-opacity="0.170"/><path d="M52 192 C78 232 178 232 204 192 C182 216 74 216 52 192 Z" fill="#375171" fill-opacity="0.100"/><ellipse cx="93" cy="164" rx="21" ry="12" fill="#f9b3b6" fill-opacity="0.450"/><ellipse cx="163" cy="164" rx="21" ry="12" fill="#f9b3b6" fill-opacity="0.450"/><ellipse cx="87" cy="135" rx="9" ry="11" fill="#2a211c"/><ellipse cx="169" cy="135" rx="9" ry="11" fill="#2a211c"/><ellipse cx="89.16" cy="131.26" rx="3.24" ry="3.74" fill="#fffdf8"/><ellipse cx="82.14" cy="139.18" rx="1.62" ry="1.98" fill="#fffdf8" fill-opacity="0.850"/><ellipse cx="171.16" cy="131.26" rx="3.24" ry="3.74" fill="#fffdf8"/><ellipse cx="164.14" cy="139.18" rx="1.62" ry="1.98" fill="#fffdf8" fill-opacity="0.850"/><polygon points="115,164 141,164 128,178" fill="#33281f"/><polygon points="110,158 146,158 128,174" fill="#f7ce73"/><polygon points="115,175 141,175 128,187" fill="#f0b75a"/></svg>
