<!-- Generated by scripts/generate_face_art.py. Do not edit. -->
<svg xmlns="http://www.w3.org/2000/svg" viewBox="0 0 256 256" width="256" height="256" role="img" aria-hidden="true"><polygon points="42,96 55,28 105,78" fill="#d06719"/><polygon points="151,78 201,28 214,96" fill="#d06719"/><polygon points="58,78 63,48 88,75" fill="#ffe8c8"/><polygon points="168,75 193,48 198,78" fill="#ffe8c8"/><ellipse cx="128" cy="141" rx="94" ry="86" fill="#fba13f"/><ellipse cx="100" cy="157" rx="39" ry="34" fill="#ffe8c8"/><ellipse cx="156" cy="157" rx="39" ry="34" fill="#ffe8c8"/><ellipse cx="60" cy="141.5" rx="16" ry="9.5" fill="#f88c92" fill-opacity="0.400"/><ellipse cx="196" cy="141.5" rx="16" ry="9.5" fill="#f88c92" fill-opacity="0.400"/><ellipse cx="91" cy="105.5" rx="11" ry="13.5" fill="#0b3b32"/><ellipse cx="165" cy="105.5" rx="11" ry="13.5" fill="#0b3b32"/><ellipse cx="94.08" cy="99.83" rx="3.52" ry="4.05" fill="#eafff6"/><ellipse cx="85.39" cy="109.955" rx="1.87" ry="2.295" fill="#eafff6" fill-opacity="0.850"/><ellipse cx="168.08" cy="99.83" rx="3.52" ry="4.05" fill="#eafff6"/><ellipse cx="159.39" cy="109.955" rx="1.87" ry="2.295" fill="#eafff6" fill-opacity="0.850"/><polygon points="123,58 133,58 128,92" fill="#d06719"/><polygon points="100,62 110,60 107,90" fill="#d06719"/><polygon points="146,60 156,62 149,90" fill="#d06719"/><polygon points="40,118 66,122 42,130" fill="#d06719"/><polygon points="214,122 190,126 212,134" fill="#d06719"/><path d="M113 137 C118 132 138 132 143 137 C141 148 133 153 128 153 C123 153 115 148 113 137 Z" fill="#d06719"/><ellipse cx="122.5" cy="140.25" rx="3.5" ry="2.25" fill="#eafff6" fill-opacity="0.400"/><path d="M140.608 162.851 A16 16 0 0 1 115.392 162.851" fill="none" stroke="#06251f" stroke-width="5.5" stroke-linecap="round"/></svg>
